# xmcd CD Database Entry
#
# Track frame offsets:
# 150
# 16707
# 35887
# 53665
# 76267
# 93370
# 112047
# 127467
# 147745
# 167900
#
# Disc length: 2476 seconds
#
# Revision: 6
# Processed by: cddbd v1.4PL0 Copyright (c) Steve Scherf et al.
# Submitted via: tcd 2.0b
#
DISCID=8d09aa0a
DTITLE=孫燕姿 - 孫燕姿
DYEAR=1900
DGENRE=
TTITLE0=超快感
TTITLE1=愛情證書
TTITLE2=天黑黑
TTITLE3=E-LOVER
TTITLE4=濃眉毛
TTITLE5=和平
TTITLE6=自然
TTITLE7=終於
TTITLE8=很好
TTITLE9=LEAVE ME ALONE
EXTD=
EXTT0=
EXTT1=
EXTT2=
EXTT3=
EXTT4=
EXTT5=
EXTT6=
EXTT7=
EXTT8=
EXTT9=
PLAYORDER=
